<?xml version="1.0" encoding="UTF-8"?>
<svg id="Layer_1" xmlns="http://www.w3.org/2000/svg" xmlns:xlink="http://www.w3.org/1999/xlink" version="1.1" viewBox="0 0 667.9 357.3">
  <!-- Generator: Adobe Illustrator 29.3.1, SVG Export Plug-In . SVG Version: 2.1.0 Build 151)  -->
  <path d="M667.4,323.8c0-.4.2-.8.3-1.3v-.8c0-.5,0-34.9.2-35.4v-42.5,2.8c0,.5,0,1-.2,1.4v.8c0,.4-.2.9-.3,1.3,0,.3,0,.6-.2.8,0,.4-.2.8-.4,1.2,0,.3-.2.6-.3,1,0,.2-.2.5-.3.7,0,.4-.3.7-.5,1.1,0,.2-.2.4-.3.7-.2.4-.4.8-.6,1.1,0,.2-.2.4-.3.6-.3.6-.7,1.1-1,1.6-.2.2-.3.5-.5.7-.3.4-.5.7-.8,1.1-.2.2-.3.4-.5.6-.3.3-.5.6-.8,1-.2.2-.4.4-.6.6-.3.3-.6.6-.9.9-.2.2-.4.4-.6.6-.3.3-.6.6-.9.9-.2.2-.5.4-.7.6-.2.2-.4.3-.6.5-.3.3-.6.5-.9.7-.2.2-.4.3-.6.5-.3.3-.7.5-1,.7-.2.1-.4.3-.6.4-.4.3-.9.6-1.3.9,0,0-.2.2-.4.2-.6.4-1.2.7-1.7,1.1-.2,0-.3.2-.5.3-.4.3-.9.5-1.3.7-.2.1-.4.2-.7.4l-1.2.6c-.2.1-.5.2-.7.4l-1.2.6c-.2.1-.5.2-.7.3-.4.2-.9.4-1.3.6-.2,0-.4.2-.7.3-.6.2-1.1.5-1.7.7,0,0-.2,0-.3.1-.7.3-1.4.5-2.1.8-.2,0-.4.1-.6.2-.5.2-1,.4-1.6.5-.3,0-.5.2-.8.2-.5.2-.9.3-1.4.4-.3,0-.5.2-.8.2-.5.1-.9.3-1.4.4-.3,0-.5.2-.8.2-.5.1-1,.3-1.5.4-.2,0-.5.1-.7.2-.7.2-1.3.3-2,.5h-.2c-.7.2-1.5.4-2.2.5-.2,0-.4,0-.6.1-.5.1-1.1.2-1.6.4-.3,0-.5.1-.8.2-.5,0-1,.2-1.5.3-.3,0-.5.1-.8.2-.5,0-1,.2-1.5.3-.3,0-.5,0-.8.1-.5,0-1.1.2-1.6.3-.2,0-.4,0-.7.1-.7.1-1.5.2-2.2.3h0c-.7.1-1.5.2-2.2.3h-.6c-.5,0-1,.1-1.6.2h-.8c-.5,0-.9,0-1.4.1h-.8c-.5,0-.9,0-1.4.1h-2.2c-.2,0-.4-.2-.6-.2H246.1c-58.6,0-117.2.2-175.8.2-23.4-1-54.4-8.1-65.8-25-3.1-4.6-4.5-9.5-4.5-15v39.7c0,5.4,1.5,44.5,4.5,49.1,11.3,16.9,42.4,24.1,65.8,25.1h532.4c.4,0,.9,0,1.3-.1h.9c.4,0,.9,0,1.3-.1h.9c.5,0,.9-.1,1.4-.2h.8c.7,0,1.4-.2,2.1-.3h.5c.6,0,1.2-.2,1.8-.3.3,0,.6,0,.9-.1.5,0,.9-.1,1.4-.2.3,0,.6-.1.9-.2.4,0,.9-.2,1.3-.2s.6-.1,1-.2c.4,0,.9-.2,1.3-.3.3,0,.6-.1.9-.2.5,0,.9-.2,1.4-.3.3,0,.6-.1.8-.2.7-.2,1.4-.3,2.2-.5.2,0,.4,0,.6-.1.5-.1,1.1-.3,1.6-.4.3,0,.6-.2.9-.2.4-.1.9-.2,1.3-.4.3,0,.6-.2.9-.3.4-.1.8-.2,1.2-.4.3,0,.6-.2.9-.3.4-.1.8-.3,1.3-.4.3,0,.6-.2.9-.3.5-.2.9-.3,1.4-.5.2,0,.5-.2.7-.3.7-.2,1.4-.5,2-.8.2,0,.4-.1.5-.2.5-.2,1-.4,1.5-.6.3-.1.5-.2.8-.3.4-.2.8-.4,1.2-.5.3-.1.5-.2.8-.4.4-.2.8-.4,1.2-.5.3-.1.5-.3.8-.4.4-.2.8-.4,1.1-.6.2-.1.5-.2.7-.4.4-.2.8-.5,1.3-.7.2-.1.4-.2.5-.3.6-.3,1.2-.7,1.7-1,0,0,.3-.2.4-.3.4-.3.9-.6,1.3-.8s.4-.3.6-.4c.3-.2.7-.5,1-.7.2-.2.4-.3.6-.5.3-.2.6-.5.9-.7.2-.2.4-.3.6-.5l.3-.3c0-.1.3-.2.4-.4.3-.3.6-.6,1-.9.2-.2.4-.4.6-.6.3-.3.6-.6.9-.9.2-.2.4-.4.6-.6.3-.3.6-.6.8-1,.2-.2.3-.4.5-.6.3-.4.5-.7.8-1.1,0-.2.2-.3.3-.5v-.2c.4-.5.7-1.1,1-1.6,0-.2.2-.4.3-.6.2-.4.4-.7.6-1.1,0-.2.2-.5.3-.7.2-.3.3-.7.5-1,0-.2.2-.5.3-.7,0-.2,0-.4.2-.5v-.4c0-.4.3-.8.4-1.2,0-.3.2-.5.2-.8l.2-.2h.2,0Z"/>
  <path d="M657.7,217.7l-26.9-67.4c-13.9-34.6-27.8-69.3-41.6-103.9-10.7-25.9-42.9-46.4-73.3-46.4H152.1c-30.4,0-62.6,20.5-73.3,46.5-14.8,37.1-29.7,74.3-44.6,111.5l-23.8,59.6c-3.6,8.7-3.4,15.9.8,22.1,10.3,15.4,42,20.8,59.2,21.6h527.2c17.2-.8,48.9-6.2,59.2-21.6,4.2-6.2,4.5-13.4.9-22h0ZM413.9,141.3l-40.6,44.9c-6.3,7.1-17.1,7.1-24.5,0-7.2-6.7-7.3-16.4-.9-22.6l19.3-18.4h-70.9c-26.2,0-41.7-16.4-36.4-35.4l13.1-36.2c1.3-4.6,6.7-7.6,13.5-7.6s10.9,2.9,10.1,7.6l-9.4,36.2c-1.1,6.4,3.7,10.9,12.3,10.9h65.2l-19-14c-5.4-4-5.6-9.8-.6-13.6,4.9-3.7,12.4-3.7,17.9,0l46.5,31c1.8,1.1,3.5,2.4,3.8,3.5,2.4,3.6,3.5,7.3,2.7,9.8.3,1.3-.8,2.6-2,3.9h.2-.3Z"/>
</svg>